<?xml version="1.0" encoding="UTF-8"?>
<svg version="1.1" xmlns="http://www.w3.org/2000/svg" width="1024" height="1024">
<path d="M0 0 C-0.35724724 4.0726185 -0.74629053 7.97976405 -1.734375 11.953125 C-9.30181001 42.65121042 -2.6477743 76.18095193 13.48828125 103.02734375 C21.02273177 115.12283308 29.53020271 126.36176287 39 137 C39.62463135 137.71148193 40.2492627 138.42296387 40.89282227 139.15600586 C46.68018696 145.68458353 52.74214669 151.89652633 58.9206543 158.05102539 C60.56741404 159.69239796 62.20872095 161.33908819 63.84960938 162.98632812 C69.3931109 168.53374555 74.99783241 173.94532281 81 179 C82.10595446 179.94995566 83.21143743 180.90046055 84.31640625 181.8515625 C85.3981425 182.77638683 86.48018115 183.70085756 87.5625 184.625 C91.98328704 188.40434187 96.38729088 192.20174899 100.7734375 196.02124023 C106.50775445 201.01316794 112.29213404 205.91621275 118.203125 210.69921875 C121.45278779 213.37247487 124.63147073 216.12084885 127.8125 218.875 C132.44680324 222.88066536 137.15856989 226.74755263 142 230.5 C148.61924959 235.6337109 154.96452144 241.0456433 161.29296875 246.53125 C163.49216723 248.42346654 165.71720861 250.2836438 167.94311523 252.14428711 C174.59300612 257.71142778 180.98530475 263.51617421 187.31787109 269.43994141 C189.10093427 271.09360958 190.90167785 272.72617849 192.70703125 274.35546875 C193.3103125 274.90275635 193.91359375 275.45004395 194.53515625 276.01391602 C195.69942864 277.06927776 196.8672793 278.12070849 198.0390625 279.16772461 C199.39725434 280.40479978 200.70413941 281.69777675 202 283 C202 283.66 202 284.32 202 285 C202.66 285 203.32 285 204 285 C205.33984375 286.29296875 205.33984375 286.29296875 206.9375 288.1875 C207.56011719 288.92355469 208.18273437 289.65960937 208.82421875 290.41796875 C209.54222656 291.27003906 210.26023437 292.12210938 211 293 C211.83144531 293.94488281 212.66289063 294.88976562 213.51953125 295.86328125 C220.73583222 304.1069256 227.0405216 312.81191028 233 322 C233.41024414 322.63196289 233.82048828 323.26392578 234.24316406 323.91503906 C255.58424064 357.18354105 263.17224981 396.33134971 264.66784668 435.30001831 C264.72174144 436.70226299 264.77868533 438.1043945 264.83898926 439.50637817 C265.2037416 448.32295208 264.71135941 456.35912309 263 465 C262.70393085 466.89305311 262.41745532 468.78763172 262.140625 470.68359375 C255.91266395 511.52383497 240.02184277 547.65898992 212.36010742 578.44873047 C211.1304669 579.85119607 209.96331254 581.30784948 208.8046875 582.76953125 C206.5102232 585.6053302 203.82212944 587.69622086 201 590 C200.2575 590.7425 199.515 591.485 198.75 592.25 C163.52822498 627.47177502 114.29464032 644.83968141 65.0625 645.1875 C17.64550754 645.07231702 -27.24131939 630.50867349 -63 599 C-64.10601562 598.07767578 -64.10601562 598.07767578 -65.234375 597.13671875 C-93.98439307 573.0442036 -111.58554333 535.51015497 -115.24169922 498.55712891 C-118.40052825 462.19257848 -109.22200095 427.41853263 -86 399 C-85.30390625 398.13890625 -84.6078125 397.2778125 -83.890625 396.390625 C-66.36995455 375.80064002 -39.01827937 362.93453394 -12.21777344 360.68212891 C-8.28800718 360.52799108 -4.36933399 360.4725708 -0.4375 360.5 C0.25666016 360.50209473 0.95082031 360.50418945 1.66601562 360.50634766 C24.57283336 360.64807178 46.51170835 366.48261106 64 382 C75.08292518 393.38198824 80.92131106 406.30404421 81.75 422.0625 C81.80542969 422.82626953 81.86085938 423.59003906 81.91796875 424.37695312 C82.2008675 429.38769008 81.63914775 433.25277595 80 438 C75.75153925 437.52794881 73.73180712 435.11122478 71 432 C71 431.34 71 430.68 71 430 C70.40960938 429.73574219 69.81921875 429.47148438 69.2109375 429.19921875 C66.92434725 427.95896573 65.46793917 426.63459145 63.625 424.8125 C51.49445682 414.10907954 34.03609618 409.07018949 18 410 C-0.0102687 412.18683421 -15.13449673 418.94848946 -28 432 C-29.04575295 433.63834629 -30.06927875 435.29367772 -31 437 C-31.66 437 -32.32 437 -33 437 C-33.27070313 437.71542969 -33.54140625 438.43085937 -33.8203125 439.16796875 C-35.00336738 442.00808395 -36.40134289 444.61334048 -37.875 447.3125 C-46.80229077 465.38588768 -48.337472 487.69978383 -42.12109375 506.9296875 C-41.75113281 507.94289063 -41.38117188 508.95609375 -41 510 C-40.72285156 510.86882812 -40.44570313 511.73765625 -40.16015625 512.6328125 C-32.65057195 534.15798039 -13.73547616 551.97646416 6.12011719 562.09326172 C20.26542827 568.916078 36.28498267 573.44041481 52 574 C52.93070313 574.0515625 53.86140625 574.103125 54.8203125 574.15625 C83.63198164 575.0404956 112.42236734 565.22069124 134 546 C135.00284845 544.66880777 136.00298821 543.33556927 137 542 C138.65357727 540.65046758 140.32099603 539.31776372 142 538 C168.64277137 512.03788337 180.3825778 472.31944386 181 436 C181.08740748 397.60189243 165.44667992 363.40913821 139 336 C138.48179687 335.46133301 137.96359375 334.92266602 137.4296875 334.36767578 C130.74693139 327.45415098 123.98059218 320.90328046 116.43359375 314.93359375 C114.28301167 313.22486481 112.22984658 311.46008942 110.1875 309.625 C106.07387213 305.98246244 101.74785225 302.63274771 97.41479492 299.25830078 C93.54956203 296.24030557 89.75389082 293.15668092 86 290 C81.24484712 286.00592318 76.4047652 282.14606859 71.50756836 278.32958984 C66.13677903 274.13419101 60.8532868 269.83537162 55.59277344 265.50268555 C52.47738892 262.95093442 49.3484979 260.52188508 46.02734375 258.2421875 C45.02832031 257.50226563 44.02929688 256.76234375 43 256 C43 255.34 43 254.68 43 254 C42.40904541 253.72671875 41.81809082 253.4534375 41.20922852 253.171875 C39.06919399 252.03670363 37.46719726 250.84251188 35.65234375 249.25 C35.04712891 248.7240625 34.44191406 248.198125 33.81835938 247.65625 C33.19767578 247.1096875 32.57699219 246.563125 31.9375 246 C30.69790296 244.91519268 29.45706251 243.83180417 28.21484375 242.75 C27.66948975 242.27046875 27.12413574 241.7909375 26.56225586 241.296875 C24.81919476 239.80388257 24.81919476 239.80388257 22 238 C22 237.34 22 236.68 22 236 C21.11707275 235.5992627 21.11707275 235.5992627 20.21630859 235.19042969 C17.96528114 233.98135171 16.39116371 232.70300154 14.5390625 230.953125 C13.90226563 230.355 13.26546875 229.756875 12.609375 229.140625 C11.62710938 228.20476562 11.62710938 228.20476562 10.625 227.25 C9.97789062 226.6415625 9.33078125 226.033125 8.6640625 225.40625 C6.76549419 223.61485893 4.88090636 221.8099099 3 220 C2.40155273 219.43216797 1.80310547 218.86433594 1.18652344 218.27929688 C-0.24833968 216.89245912 -1.62982022 215.45077859 -3 214 C-3 213.34 -3 212.68 -3 212 C-3.66 212 -4.32 212 -5 212 C-7.7597105 209.03212169 -10.21104317 205.81026313 -12.71484375 202.625 C-13.96063647 201.04977273 -15.22998703 199.49326589 -16.5 197.9375 C-25.50870843 186.77036349 -32.5923537 174.2922215 -38 161 C-38.43054688 159.95972656 -38.86109375 158.91945313 -39.3046875 157.84765625 C-42.96311804 148.39851464 -44.65582396 139.00468969 -46 129 C-46.13277344 128.07445312 -46.26554687 127.14890625 -46.40234375 126.1953125 C-51.57005751 84.14569645 -35.11249266 41.04705874 -10 8 C-3.71764706 0 -3.71764706 0 0 0 Z " fill="#FC7F28" transform="translate(383,267)"/>
<path d="M0 0 C-1.6291634 5.18463321 -4.84923522 9.08472431 -8.0625 13.375 C-13.89824335 21.3269931 -19.19817612 29.38737143 -24 38 C-24.40847168 38.72799805 -24.81694336 39.45599609 -25.23779297 40.20605469 C-44.20351992 74.28834932 -54.50979846 112.73537224 -43.86328125 151.265625 C-38.25909716 170.39280211 -29.34368824 186.4315766 -17 202 C-16.23429688 202.97066406 -15.46859375 203.94132813 -14.6796875 204.94140625 C-10.88465903 209.66911121 -7.01304589 214.14494898 -2.6484375 218.3515625 C-0.98537988 220.01462012 0.4970196 221.75434591 2 223.5625 C5.65781558 227.81733836 9.71688915 231.61212599 13.8125 235.4375 C14.48345703 236.065354 15.15441406 236.69320801 15.84570312 237.34008789 C19.16424716 240.53280772 19.16424716 240.53280772 23 243 C23 243.66 23 244.32 23 245 C23.56589844 245.24621094 24.13179687 245.49242187 24.71484375 245.74609375 C27.39248258 247.21536224 29.33043612 248.97752435 31.5625 251.0625 C36.06071137 255.18917769 40.69988846 259.07995582 45.4453125 262.91796875 C47.68518134 264.7434276 49.88198669 266.60449154 52.0625 268.5 C54.70879388 270.954032 54.70879388 270.954032 57 272 C57 272.66 57 273.32 57 274 C57.52464844 274.21527344 58.04929687 274.43054688 58.58984375 274.65234375 C61.9453399 276.52859363 64.69094725 279.03482939 67.5625 281.5625 C68.81810225 282.65469075 70.07462253 283.74582697 71.33203125 284.8359375 C71.95287598 285.37444336 72.5737207 285.91294922 73.21337891 286.46777344 C75.68705053 288.58922234 78.21464102 290.64040558 80.75 292.6875 C85.13515029 296.24562633 89.32523455 299.97200586 93.49609375 303.77734375 C95.95725971 305.9620605 98.48660566 308.01499424 101.0625 310.0625 C109.11621235 316.58760405 116.5410473 323.81160675 124 331 C124.6384082 331.61504395 125.27681641 332.23008789 125.93457031 332.86376953 C127.65183155 334.52630284 129.3596989 336.19767204 131.0625 337.875 C131.569021 338.36846924 132.07554199 338.86193848 132.59741211 339.37036133 C133.77151874 340.54154989 134.89202142 341.76606625 136 343 C136 343.66 136 344.32 136 345 C136.66 345 137.32 345 138 345 C141.22932232 348.46827852 144.08720469 352.263873 147 356 C147.73992187 356.94875 148.47984375 357.8975 149.2421875 358.875 C151.54089504 361.88540703 153.78111433 364.93029162 156 368 C156.39832031 368.54575684 156.79664063 369.09151367 157.20703125 369.65380859 C182.15930801 404.16122307 191.46986634 446.94896918 184.90234375 488.78515625 C179.04211622 523.56172714 161.23722871 556.37015854 135.40234375 580.41796875 C133 582 133 582 130.6875 581.75 C130.130625 581.5025 129.57375 581.255 129 581 C128.75832648 573.52154718 129.11174862 566.3523351 130 558.9375 C135.28735948 513.00298784 121.10548985 470.28989672 92.75927734 434.16845703 C86.95486838 427.01403566 80.50895754 420.50775195 74 414 C72.39924129 412.38851566 70.79899413 410.77652304 69.19921875 409.1640625 C67.36205135 407.31763651 65.52480955 405.47128454 63.6875 403.625 C62.77548828 402.70460938 61.86347656 401.78421875 60.92382812 400.8359375 C55.78012547 395.67379864 50.55481216 390.71544774 45 386 C43.82059849 384.9777336 42.64219585 383.95431355 41.46484375 382.9296875 C40.28924211 381.91125097 39.11345583 380.89302754 37.9375 379.875 C36.62498321 378.73830064 35.3124837 377.60158132 34 376.46484375 C33.33742188 375.8910498 32.67484375 375.31725586 31.9921875 374.72607422 C30.056405 373.04887051 28.12174492 371.37038279 26.1875 369.69140625 C4.45877866 350.78579246 4.45877866 350.78579246 -17.6875 332.375 C-22.95260786 328.0866078 -27.98653714 323.57785393 -33 319 C-34.70691433 317.45676238 -36.41524242 315.91508698 -38.125 314.375 C-38.87007812 313.70210938 -39.61515625 313.02921875 -40.3828125 312.3359375 C-41.81754656 311.05538382 -43.25710688 309.77990452 -44.71801758 308.52929688 C-50.54663195 303.52094062 -56.00302495 298.1805569 -61.4375 292.75 C-62.32759766 291.87214844 -63.21769531 290.99429687 -64.13476562 290.08984375 C-70.19517086 284.04271917 -75.69343906 277.71447854 -81 271 C-81.90489922 269.88147102 -82.80983765 268.76297376 -83.71484375 267.64453125 C-113.0887553 230.2173153 -125.77785688 186.9275684 -121.69970703 139.50830078 C-120.9144055 133.22488818 -119.63929817 127.11321608 -118 121 C-117.69449219 119.84540283 -117.69449219 119.84540283 -117.3828125 118.66748047 C-106.03377192 77.48342347 -75.69909771 43.56987636 -41 20 C-40.35047363 19.5565625 -39.70094727 19.113125 -39.03173828 18.65625 C-30.83820755 13.10051137 -22.45519958 7.96702885 -13.75 3.25 C-12.95182861 2.80720703 -12.15365723 2.36441406 -11.33129883 1.90820312 C-4.42543959 -1.73477232 -4.42543959 -1.73477232 0 0 Z " fill="#FC7F27" transform="translate(554,89)"/>
<path d="M0 0 C-1.6291634 5.18463321 -4.84923522 9.08472431 -8.0625 13.375 C-13.89824335 21.3269931 -19.19817612 29.38737143 -24 38 C-24.40847168 38.72799805 -24.81694336 39.45599609 -25.23779297 40.20605469 C-44.20351992 74.28834932 -54.50979846 112.73537224 -43.86328125 151.265625 C-38.25909716 170.39280211 -29.34368824 186.4315766 -17 202 C-16.23429688 202.97066406 -15.46859375 203.94132813 -14.6796875 204.94140625 C-10.88465903 209.66911121 -7.01304589 214.14494898 -2.6484375 218.3515625 C-0.98537988 220.01462012 0.4970196 221.75434591 2 223.5625 C5.65781558 227.81733836 9.71688915 231.61212599 13.8125 235.4375 C14.48345703 236.065354 15.15441406 236.69320801 15.84570312 237.34008789 C19.16424716 240.53280772 19.16424716 240.53280772 23 243 C23 243.66 23 244.32 23 245 C23.84884766 245.36931641 23.84884766 245.36931641 24.71484375 245.74609375 C27.39248258 247.21536224 29.33043612 248.97752435 31.5625 251.0625 C36.06071137 255.18917769 40.69988846 259.07995582 45.4453125 262.91796875 C47.68518134 264.7434276 49.88198669 266.60449154 52.0625 268.5 C54.70879388 270.954032 54.70879388 270.954032 57 272 C57 272.66 57 273.32 57 274 C57.52464844 274.21527344 58.04929687 274.43054688 58.58984375 274.65234375 C61.9453399 276.52859363 64.69094725 279.03482939 67.5625 281.5625 C68.81810225 282.65469075 70.07462253 283.74582697 71.33203125 284.8359375 C71.95287598 285.37444336 72.5737207 285.91294922 73.21337891 286.46777344 C75.68705053 288.58922234 78.21464102 290.64040558 80.75 292.6875 C85.13515029 296.24562633 89.32523455 299.97200586 93.49609375 303.77734375 C95.95725971 305.9620605 98.48660566 308.01499424 101.0625 310.0625 C109.11621235 316.58760405 116.5410473 323.81160675 124 331 C124.6384082 331.61504395 125.27681641 332.23008789 125.93457031 332.86376953 C127.65183155 334.52630284 129.3596989 336.19767204 131.0625 337.875 C131.569021 338.36846924 132.07554199 338.86193848 132.59741211 339.37036133 C133.77151874 340.54154989 134.89202142 341.76606625 136 343 C136 343.66 136 344.32 136 345 C136.66 345 137.32 345 138 345 C141.22932232 348.46827852 144.08720469 352.263873 147 356 C147.73992187 356.94875 148.47984375 357.8975 149.2421875 358.875 C151.54089504 361.88540703 153.78111433 364.93029162 156 368 C156.39832031 368.54575684 156.79664063 369.09151367 157.20703125 369.65380859 C176.55260054 396.40750263 187.21526591 429.21897431 187.1875 462.25 C187.18814453 463.06122314 187.18878906 463.87244629 187.18945312 464.70825195 C187.12692836 471.93483559 186.29995383 478.88507415 185 486 C184.67 486 184.34 486 184 486 C184.01047363 485.06430176 184.02094727 484.12860352 184.03173828 483.16455078 C184.52319122 458.48888625 184.52319122 458.48888625 182 434 C181.82259277 432.98558838 181.82259277 432.98558838 181.64160156 431.95068359 C176.17334409 402.09789376 159.92596377 373.73653864 139.78198242 351.36254883 C137.37814406 348.68982475 135.51757305 346.25409943 134 343 C132.6846659 342.29848848 131.34882408 341.63474075 130 341 C127.75 339 127.75 339 126 337 C126 336.34 126 335.68 126 335 C125.46890625 334.79761719 124.9378125 334.59523438 124.390625 334.38671875 C120.95765197 332.39537001 118.49154915 329.65501385 115.75 326.8125 C110.99906154 321.9787078 106.1871108 317.36712348 101 313 C99.3878873 311.61971885 97.77853268 310.23625226 96.16894531 308.85302734 C94.35538482 307.29565572 92.53931329 305.74125792 90.72265625 304.1875 C88.26836295 302.08768 85.8179562 299.98347363 83.37109375 297.875 C78.14793588 293.3778161 72.91721556 288.90330492 67.5625 284.5625 C62.46058244 280.42235776 57.50845082 276.12454617 52.55810547 271.8059082 C48.81982653 268.55268026 45.04073621 265.36746975 41.1875 262.25 C36.77230602 258.67329983 32.53357209 254.94158215 28.33203125 251.1171875 C26.24176111 249.21948831 24.13013885 247.35266585 22 245.5 C20.66633757 244.33370955 19.3330169 243.16702821 18 242 C17.26523437 241.35933594 16.53046875 240.71867188 15.7734375 240.05859375 C5.60400889 231.06510884 -4.38861759 221.51687979 -13 211 C-13.44053711 210.46793945 -13.88107422 209.93587891 -14.33496094 209.38769531 C-20.7885186 201.57372601 -26.86739771 193.76160083 -32 185 C-32.37866211 184.38914551 -32.75732422 183.77829102 -33.14746094 183.14892578 C-50.23895611 155.55036391 -54.73277273 121.23095016 -48.04711914 89.49072266 C-44.03996143 72.89508811 -37.13694613 56.9604788 -29 42 C-28.64969727 41.3409668 -28.29939453 40.68193359 -27.93847656 40.00292969 C-21.38444682 27.68983338 -13.65345696 16.53175379 -5.05859375 5.55078125 C-3.80181778 3.86158383 -3.80181778 3.86158383 -3 1 C-34.41221825 15.79707387 -65.69060682 37.17191364 -86.6171875 65.27734375 C-88 67 -88 67 -90 68 C-88.57918195 63.64334798 -86.44390457 61.00113025 -83.3125 57.6875 C-80.34020962 54.51677395 -77.41145353 51.3368641 -74.625 48 C-56.78646415 27.63675258 -32.62659705 13.57926358 -9 1 C-8.31905273 0.62037109 -7.63810547 0.24074219 -6.93652344 -0.15039062 C-4.32937702 -1.29422188 -2.68550145 -0.74597263 0 0 Z " fill="#F8620E" transform="translate(554,89)"/>
<path d="M0 0 C2.7535776 2.7535776 3.44457755 6.00439997 4.625 9.625 C15.66350419 42.07329325 38.49377716 67.65828611 62.3125 91.5 C62.92609375 92.1146814 63.5396875 92.72936279 64.171875 93.3626709 C70.60161375 99.79112164 77.03095526 106.15042847 84 112 C85.10609934 112.94978695 86.2115827 113.90029181 87.31640625 114.8515625 C88.3981425 115.77638683 89.48018115 116.70085756 90.5625 117.625 C94.98328704 121.40434187 99.38729088 125.20174899 103.7734375 129.02124023 C109.50775445 134.01316794 115.29213404 138.91621275 121.203125 143.69921875 C124.45278779 146.37247487 127.63147073 149.12084885 130.8125 151.875 C135.44680324 155.88066536 140.15856989 159.74755263 145 163.5 C151.61924959 168.6337109 157.96452144 174.0456433 164.29296875 179.53125 C166.49216723 181.42346654 168.71720861 183.2836438 170.94311523 185.14428711 C177.59300612 190.71142778 183.98530475 196.51617421 190.31787109 202.43994141 C192.10093427 204.09360958 193.90167785 205.72617849 195.70703125 207.35546875 C196.3103125 207.90275635 196.91359375 208.45004395 197.53515625 209.01391602 C198.69942864 210.06927776 199.8672793 211.12070849 201.0390625 212.16772461 C202.39725434 213.40479978 203.70413941 214.69777675 205 216 C205 216.66 205 217.32 205 218 C205.66 218 206.32 218 207 218 C208.33984375 219.29296875 208.33984375 219.29296875 209.9375 221.1875 C210.87142578 222.29158203 210.87142578 222.29158203 211.82421875 223.41796875 C212.54222656 224.27003906 213.26023437 225.12210938 214 226 C215.24716797 227.41732422 215.24716797 227.41732422 216.51953125 228.86328125 C223.73583222 237.1069256 230.0405216 245.81191028 236 255 C236.61536621 255.94794434 236.61536621 255.94794434 237.24316406 256.91503906 C258.58424064 290.18354105 266.17224981 329.33134971 267.66784668 368.30001831 C267.72174144 369.70226299 267.77868533 371.1043945 267.83898926 372.50637817 C268.2037416 381.32295208 267.71135941 389.35912309 266 398 C265.70393085 399.89305311 265.41745532 401.78763172 265.140625 403.68359375 C259.45062991 440.9960898 245.75384008 479.40291568 219 507 C219 503.20162407 219.99300798 502.52272954 222.4375 499.6875 C227.54822905 493.47004618 231.8261759 486.86030082 236 480 C236.37801758 479.38382813 236.75603516 478.76765625 237.14550781 478.1328125 C250.08887812 456.82212253 258.03469739 432.78903762 261.65161133 408.16259766 C261.89860847 406.62938066 262.18950705 405.10294558 262.51049805 403.58349609 C264.54512884 393.36955886 264.35218871 383.11995361 264.3125 372.75 C264.31067719 371.77023193 264.30885437 370.79046387 264.30697632 369.78100586 C264.23809533 347.82704263 262.23888437 327.13090225 256 306 C255.74734375 305.1430957 255.4946875 304.28619141 255.234375 303.40332031 C248.05611493 279.57255252 236.99679535 258.88914424 221.6796875 239.3203125 C220 237 220 237 219 234 C218.34 234 217.68 234 217 234 C215.78582725 232.60434077 214.64207587 231.14720708 213.53125 229.66796875 C208.92952557 223.77356676 203.81813258 218.55814728 198.5 213.3125 C197.60152344 212.41466797 196.70304688 211.51683594 195.77734375 210.59179688 C191.22646579 206.07072816 186.61351444 201.68390704 181.74707031 197.50415039 C179.31973737 195.41432392 176.97660309 193.2368284 174.625 191.0625 C170.50606237 187.30931503 166.29556145 183.76141163 161.91796875 180.31640625 C152.30010604 172.68134254 142.88297803 164.78664936 133.52978516 156.83056641 C130.23857772 154.03474297 126.91447663 151.28506617 123.5625 148.5625 C118.6991757 144.60529725 113.94049712 140.53706314 109.19384766 136.44165039 C105.65689413 133.39704312 102.07600059 130.42351139 98.4375 127.5 C93.08065054 123.15447315 88.05247751 118.49936335 83.01171875 113.796875 C78.83899298 109.90667076 74.57326873 106.12239686 70.171875 102.4921875 C66.58520071 99.51368841 63.49263128 96.4332167 60.5546875 92.80859375 C57.5411742 89.30292375 54.15778371 86.15112894 50.8359375 82.94140625 C43.30553287 75.62256032 36.52833574 68.0716928 30.24511719 59.65966797 C29.04767248 58.06354461 27.82508035 56.48638201 26.6015625 54.91015625 C15.69724838 40.74943433 0 18.7461466 0 0 Z " fill="#F9620E" transform="translate(380,334)"/>
<path d="M0 0 C0.66 0.33 1.32 0.66 2 1 C1.3709375 1.90878906 0.741875 2.81757813 0.09375 3.75390625 C-13.98647848 24.30993333 -23.66714315 46.08976817 -27 71 C-27.19335938 72.41345703 -27.19335938 72.41345703 -27.390625 73.85546875 C-32.03210486 115.20128277 -19.74794624 156.84628581 5 190 C5.76828125 191.05316406 6.5365625 192.10632813 7.328125 193.19140625 C12.78380156 200.55956479 18.79809597 207.27042424 25.1171875 213.90625 C27.56708057 216.49209366 29.79945689 219.19710072 32 222 C34.39687954 224.51979644 36.78405667 226.82724533 39.5 229 C42.9351486 231.74811888 45.91495531 234.87396953 48.96484375 238.0390625 C53.740698 242.92403117 58.67044672 247.25855575 64.12890625 251.37109375 C65.05509766 252.17740234 65.05509766 252.17740234 66 253 C66 253.66 66 254.32 66 255 C66.78697266 255.32291016 66.78697266 255.32291016 67.58984375 255.65234375 C70.94537106 257.52861105 73.69083313 260.03493265 76.5625 262.5625 C77.82335107 263.65855103 79.08507833 264.75359489 80.34765625 265.84765625 C80.96914551 266.38664551 81.59063477 266.92563477 82.23095703 267.48095703 C84.61880319 269.53135433 87.05414785 271.51933221 89.5 273.5 C95.49689151 278.37302311 101.34837169 283.40812141 107.20166016 288.45166016 C109.55010464 290.47363069 111.90303578 292.49033115 114.2565918 294.50634766 C115.42127709 295.50418334 116.5855007 296.50255817 117.74926758 297.50146484 C120.65866961 299.99825191 123.57342608 302.48819791 126.5 304.96484375 C133.31921891 310.74963873 139.97425789 316.66535922 146.47070312 322.81225586 C148.89927438 325.10167539 151.21557879 327.14371919 154 329 C154 329.66 154 330.32 154 331 C154.85126465 331.36448242 154.85126465 331.36448242 155.71972656 331.73632812 C158.4324851 333.23967269 160.28777642 335.02862016 162.484375 337.21875 C163.76441406 338.49492188 163.76441406 338.49492188 165.0703125 339.796875 C165.95460938 340.68890625 166.83890625 341.5809375 167.75 342.5 C169.05324219 343.79164063 169.05324219 343.79164063 170.3828125 345.109375 C176.02698501 350.77049698 181.14069317 356.65578911 186 363 C186.66878174 363.85730713 186.66878174 363.85730713 187.35107422 364.73193359 C192.66266754 371.56433889 197.52660496 378.59437957 202 386 C202.64839844 387.05703125 203.29679688 388.1140625 203.96484375 389.203125 C209.2681564 398.12001921 213.31435064 407.31132946 217 417 C217.47566406 418.22783203 217.47566406 418.22783203 217.9609375 419.48046875 C221.63341112 429.68836586 224.7912238 441.12067272 224 452 C222.13956459 449.20934688 221.66866351 448.10695909 221.140625 444.96484375 C220.99794189 444.1648999 220.85525879 443.36495605 220.70825195 442.54077148 C220.55702881 441.68169189 220.40580566 440.8226123 220.25 439.9375 C213.1283751 402.49916182 192.64728411 371.59801939 166 345 C164.39924129 343.38851566 162.79899413 341.77652304 161.19921875 340.1640625 C159.36205135 338.31763651 157.52480955 336.47128454 155.6875 334.625 C154.77548828 333.70460938 153.86347656 332.78421875 152.92382812 331.8359375 C147.78012547 326.67379864 142.55481216 321.71544774 137 317 C135.82059849 315.9777336 134.64219585 314.95431355 133.46484375 313.9296875 C132.28924211 312.91125097 131.11345583 311.89302754 129.9375 310.875 C128.62498321 309.73830064 127.3124837 308.60158132 126 307.46484375 C125.33742188 306.8910498 124.67484375 306.31725586 123.9921875 305.72607422 C122.056405 304.04887051 120.12174492 302.37038279 118.1875 300.69140625 C96.45877866 281.78579246 96.45877866 281.78579246 74.3125 263.375 C69.04739214 259.0866078 64.01346286 254.57785393 59 250 C57.29308567 248.45676238 55.58475758 246.91508698 53.875 245.375 C53.12992188 244.70210937 52.38484375 244.02921875 51.6171875 243.3359375 C50.18245344 242.05538382 48.74289312 240.77990452 47.28198242 239.52929688 C41.45336805 234.52094062 35.99697505 229.1805569 30.5625 223.75 C29.67240234 222.87214844 28.78230469 221.99429688 27.86523438 221.08984375 C21.80482914 215.04271917 16.30656094 208.71447854 11 202 C10.09510078 200.88147102 9.19016235 199.76297376 8.28515625 198.64453125 C-21.0887553 161.2173153 -33.77785688 117.9275684 -29.69970703 70.50830078 C-28.9144055 64.22488818 -27.63929817 58.11321608 -26 52 C-25.69449219 50.84540283 -25.69449219 50.84540283 -25.3828125 49.66748047 C-20.37108467 31.4806317 -11.55239346 14.84605457 0 0 Z " fill="#FA640F" transform="translate(462,158)"/>
<path d="M0 0 C0.33 0 0.66 0 1 0 C0.97905273 0.95028076 0.95810547 1.90056152 0.93652344 2.87963867 C0.34988689 29.68989967 0.34988689 29.68989967 5 56 C5.27287842 57.01731201 5.27287842 57.01731201 5.55126953 58.05517578 C13.27018549 86.02676133 32.01928897 110.07904957 52.85546875 129.6953125 C54 131 54 131 54 133 C54.54140625 133.22300781 55.0828125 133.44601562 55.640625 133.67578125 C58.74981077 135.4208375 61.17835265 137.75328449 63.75 140.1875 C64.83014996 141.1933307 65.91087851 142.19854041 66.9921875 143.203125 C67.51264648 143.68845703 68.03310547 144.17378906 68.56933594 144.67382812 C71.64625879 147.5260201 74.82116251 150.26266772 78 153 C78.50789063 153.43957031 79.01578125 153.87914062 79.5390625 154.33203125 C86.01703449 159.9373997 92.51547141 165.49311212 99.23828125 170.8046875 C102.87176353 173.69297186 106.46505055 176.62954495 110.0625 179.5625 C114.89330959 183.49490361 119.73853765 187.39955956 124.671875 191.203125 C133.89778968 198.3237974 143.03624676 205.55124731 152 213 C152.50885742 213.42249023 153.01771484 213.84498047 153.54199219 214.28027344 C160.14012665 219.77136528 166.5986065 225.37991454 172.89111328 231.21948242 C175.47628688 233.61702944 178.09171861 235.94543071 180.8125 238.1875 C183.9554365 240.84339549 186.60039182 243.81346235 189.2578125 246.94921875 C190.37474338 248.26399165 191.5138345 249.56043809 192.6796875 250.83203125 C216.6139188 277.02733048 229.2068118 310.68958081 228 346 C227.34 345.67 226.68 345.34 226 345 C225.97421875 343.93265625 225.9484375 342.8653125 225.921875 341.765625 C224.64523063 304.30462359 209.94508469 271.88928872 184 245 C183.48179687 244.46133301 182.96359375 243.92266602 182.4296875 243.36767578 C175.74693139 236.45415098 168.98059218 229.90328046 161.43359375 223.93359375 C159.28301167 222.22486481 157.22984658 220.46008942 155.1875 218.625 C151.07387213 214.98246244 146.74785225 211.63274771 142.41479492 208.25830078 C138.54956203 205.24030557 134.75389082 202.15668092 131 199 C126.24484712 195.00592318 121.4047652 191.14606859 116.50756836 187.32958984 C111.13677903 183.13419101 105.8532868 178.83537162 100.59277344 174.50268555 C97.47738892 171.95093442 94.3484979 169.52188508 91.02734375 167.2421875 C90.02832031 166.50226563 89.02929688 165.76234375 88 165 C88 164.34 88 163.68 88 163 C87.40904541 162.72671875 86.81809082 162.4534375 86.20922852 162.171875 C84.06919399 161.03670363 82.46719726 159.84251188 80.65234375 158.25 C80.04712891 157.7240625 79.44191406 157.198125 78.81835938 156.65625 C78.19767578 156.1096875 77.57699219 155.563125 76.9375 155 C75.69790296 153.91519268 74.45706251 152.83180417 73.21484375 151.75 C72.66948975 151.27046875 72.12413574 150.7909375 71.56225586 150.296875 C69.81919476 148.80388257 69.81919476 148.80388257 67 147 C67 146.34 67 145.68 67 145 C66.41138184 144.7328418 65.82276367 144.46568359 65.21630859 144.19042969 C62.96528114 142.98135171 61.39116371 141.70300154 59.5390625 139.953125 C58.90226562 139.355 58.26546875 138.756875 57.609375 138.140625 C56.95453125 137.51671875 56.2996875 136.8928125 55.625 136.25 C54.97789062 135.6415625 54.33078125 135.033125 53.6640625 134.40625 C51.76549419 132.61485893 49.88090636 130.8099099 48 129 C47.40155273 128.43216797 46.80310547 127.86433594 46.18652344 127.27929688 C44.75166032 125.89245912 43.37017978 124.45077859 42 123 C42 122.34 42 121.68 42 121 C41.34 121 40.68 121 40 121 C37.2402895 118.03212169 34.78895683 114.81026313 32.28515625 111.625 C31.03936353 110.04977273 29.77001297 108.49326589 28.5 106.9375 C19.49129157 95.77036349 12.4076463 83.2922215 7 70 C6.56945312 68.95972656 6.13890625 67.91945313 5.6953125 66.84765625 C2.03688196 57.39851464 0.34417604 48.00468969 -1 38 C-1.13277344 37.07445312 -1.26554687 36.14890625 -1.40234375 35.1953125 C-2.84981378 23.41726866 -2.45994629 11.59688967 0 0 Z " fill="#FA6410" transform="translate(338,358)"/>
<path d="M0 0 C0.33 0 0.66 0 1 0 C1.12633836 7.58030181 1.12633836 7.58030181 0.51098633 9.62451172 C-0.23905739 13.11133703 -0.22337031 16.59664492 -0.2734375 20.1484375 C-0.28592026 20.94935822 -0.29840302 21.75027893 -0.31126404 22.57546997 C-0.53021426 40.00710593 -0.34638542 56.23693261 5 73 C5.39082077 74.36117837 5.77896436 75.72312906 6.1640625 77.0859375 C17.93820359 115.93259347 47.82858281 148.02324191 82.89282227 167.37670898 C95.57297375 174.13080592 109.16849816 179.17229829 123 183 C124.06734375 183.29777344 125.1346875 183.59554687 126.234375 183.90234375 C128.81975343 184.6143071 131.40757419 185.31422804 134 186 C134 186.33 134 186.66 134 187 C127.57570525 186.44164471 121.7240268 185.32003524 115.5625 183.4375 C114.26759644 183.04377197 114.26759644 183.04377197 112.9465332 182.64208984 C103.95828159 179.81319999 95.45675122 176.13467473 87 172 C86.33629395 171.67773438 85.67258789 171.35546875 84.98876953 171.0234375 C48.4407544 153.04630834 18.52965997 120.43140617 4.91113281 81.92089844 C1.30848267 70.89398352 -2.05801081 59.59992407 -3 48 C-3.06413086 47.25782227 -3.12826172 46.51564453 -3.19433594 45.75097656 C-4.44270065 30.50181334 -4.65410708 14.72818696 0 0 Z " fill="#F86310" transform="translate(271,720)"/>
<path d="M0 0 C4.55875215 3.39925141 8.95183909 7.00484283 13 11 C13 11.66 13 12.32 13 13 C13.66 13 14.32 13 15 13 C15.99 14.485 15.99 14.485 17 16 C18.485 16.495 18.485 16.495 20 17 C19.67 9.08 19.34 1.16 19 -7 C19.99 -6.505 19.99 -6.505 21 -6 C21.22346404 -3.14630381 21.42913552 -0.29311502 21.625 2.5625 C21.68945312 3.36236328 21.75390625 4.16222656 21.8203125 4.98632812 C22.15846478 10.16428489 21.72394315 14.09794793 20 19 C15.75153925 18.52794881 13.73180712 16.11122478 11 13 C11 12.34 11 11.68 11 11 C10.40960938 10.73574219 9.81921875 10.47148438 9.2109375 10.19921875 C6.92434725 8.95896573 5.46793917 7.63459145 3.625 5.8125 C-8.50554318 -4.89092046 -25.96390382 -9.92981051 -42 -9 C-60.0102687 -6.81316579 -75.13449673 -0.05151054 -88 13 C-89.04575295 14.63834629 -90.06927875 16.29367772 -91 18 C-91.66 18 -92.32 18 -93 18 C-93.27070313 18.71542969 -93.54140625 19.43085937 -93.8203125 20.16796875 C-95.00336738 23.00808395 -96.40134289 25.61334048 -97.875 28.3125 C-105.91278245 44.60423999 -105.78180208 61.15291519 -106 79 C-106.33 79 -106.66 79 -107 79 C-111.480761 61.25763184 -107.63636407 38.99381321 -98.5078125 23.4609375 C-86.76363821 5.76038773 -71.4424128 -6.13383281 -50.38061523 -10.60302734 C-32.63082617 -13.56284244 -14.99032762 -9.93313124 0 0 Z " fill="#FA6511" transform="translate(443,686)"/>
<path d="M0 0 C0.33 0 0.66 0 1 0 C1.83317026 24.43966083 -4.45937125 47.13403656 -15 69 C-15.35046387 69.72703125 -15.70092773 70.4540625 -16.06201172 71.203125 C-29.7665098 98.91160188 -54.49551756 121.46257373 -83.62890625 131.9375 C-87.54105187 133.17052852 -91.46641941 134.28648571 -95.4375 135.3125 C-96.10007812 135.48434814 -96.76265625 135.65619629 -97.4453125 135.83325195 C-101.3731534 136.78682895 -104.96371141 137.16843863 -109 137 C-106.11204052 134.11204052 -102.69154696 133.998609 -98.8125 133.25 C-80.12046478 129.32590063 -60.67782646 120.70402919 -47 107 C-46.51660156 105.97326172 -46.51660156 105.97326172 -46.0234375 104.92578125 C-44.59830073 102.24413077 -42.60573105 101.49945174 -40 100 C-14.13281508 75.97372787 -3.24179817 37.53353609 -1.24609375 3.484375 C-1 1 -1 1 0 0 Z " fill="#FB6610" transform="translate(565,705)"/>
<path d="M0 0 C-2.96693828 1.97795885 -5.42757534 2.70184047 -8.85131836 3.54638672 C-36.70736502 10.44562703 -60.21894775 28.1751322 -75.0625 52.75976562 C-81.83230833 64.26608916 -86.15671995 76.24977291 -90 89 C-90.33 89 -90.66 89 -91 89 C-90.30646307 69.58096602 -77.93484782 50.605583 -66 36 C-65.30390625 35.13890625 -64.6078125 34.2778125 -63.890625 33.390625 C-49.28879176 16.23080637 -23.24392267 -0.52827097 0 0 Z " fill="#FA630F" transform="translate(363,630)"/>
<path d="M0 0 C2 1 2 1 3.19140625 4.5078125 C3.64846397 6.04686714 4.10549322 7.58593023 4.5625 9.125 C11.96631878 32.39183538 28.81480595 50.69061846 50.2890625 62.15625 C63.17268693 68.71716598 76.94512374 71.94548343 91 75 C91 75.33 91 75.66 91 76 C69.12180634 77.26220348 44.89886039 64.03433477 29 50 C28.01902344 49.21625 27.03804688 48.4325 26.02734375 47.625 C13.35174147 37.06907718 4.19218762 19.77586395 0 4 C0 2.68 0 1.36 0 0 Z " fill="#FA610E" transform="translate(337,766)"/>
<path d="M0 0 C0.7216333 -0.00040283 1.4432666 -0.00080566 2.18676758 -0.0012207 C25.33581752 0.07334582 47.41049412 5.71939082 65.125 21.4375 C71.84247926 28.33624458 79.82274013 37.78003253 80.27734375 47.79296875 C80.22707031 48.66566406 80.17679687 49.53835938 80.125 50.4375 C78.03831841 47.30747761 76.91327237 44.3808508 75.5625 40.875 C72.64888849 33.79569173 68.749897 28.68679313 63.125 23.4375 C62.37476563 22.72980469 61.62453125 22.02210938 60.8515625 21.29296875 C38.8322595 2.16324206 9.62422329 2.04517131 -17.875 2.4375 C-12.70458566 -1.00944289 -6.07826341 -0.00341591 0 0 Z " fill="#FB630F" transform="translate(381.875,627.5625)"/>
<path d="M0 0 C-0.4452885 5.27315333 -1.08373163 10.01770224 -3 15 C-4.53166168 10.91556885 -3.63081652 7.20544343 -3 3 C-21.78302041 24.90455389 -34.2617799 51.02034322 -41 79 C-41.33 79 -41.66 79 -42 79 C-41.2776347 51.09043168 -22.00258162 21.84578382 -4.47265625 1.2578125 C-3 0 -3 0 0 0 Z " fill="#F96410" transform="translate(383,267)"/>
<path d="M0 0 C0.33 0 0.66 0 1 0 C1.76243376 24.81086532 -13.64067832 50.76020007 -27.375 70.4375 C-27.87483398 71.15381592 -28.37466797 71.87013184 -28.88964844 72.6081543 C-31.29744174 75.95931158 -33.43993357 78.78128562 -37 81 C-35.67762951 77.21230562 -34.05936135 74.64411307 -31.4375 71.625 C-17.44469613 54.45545147 -8.06303653 33.43142482 -3 12 C-2.39698455 9.62470744 -1.79297087 7.24966785 -1.1875 4.875 C-0.78910991 3.25062493 -0.39212835 1.62589802 0 0 Z " fill="#F7600D" transform="translate(737,576)"/>
<path d="M0 0 C-1.31224548 3.93673644 -2.91910327 6.22719294 -6 9 C-5.37240135 6.07120629 -4.41377341 3.63904371 -3 1 C-4.1446875 1.5259375 -4.1446875 1.5259375 -5.3125 2.0625 C-8 3 -8 3 -11 2 C-6.89657963 -0.38570952 -4.61380251 -1.49270081 0 0 Z " fill="#EE6616" transform="translate(554,89)"/>
<path d="M0 0 C0.33 0 0.66 0 1 0 C1.24794402 6.5705166 0.32388229 12.56971459 -1 19 C-1.33 19 -1.66 19 -2 19 C-2.19818283 12.29481414 -2.30844801 6.34823202 0 0 Z " fill="#FB620E" transform="translate(271,720)"/>
<path d="M0 0 C0.33 0.99 0.66 1.98 1 3 C-1.64 5.64 -4.28 8.28 -7 11 C-7.99 10.67 -8.98 10.34 -10 10 C-6.7 6.7 -3.4 3.4 0 0 Z " fill="#FA6B15" transform="translate(487,129)"/>
<path d="M0 0 C3 1 3 1 3 1 Z " fill="#F37D2B" transform="translate(482,910)"/>
<path d="M0 0 C0.66 0 1.32 0 2 0 C1.67 0.66 1.34 1.32 1 2 C0.67 1.34 0.34 0.68 0 0 Z " fill="#F17B2A" transform="translate(331,877)"/>
<path d="M0 0 C2 1 2 1 2 1 Z " fill="#F27B2C" transform="translate(488,909)"/>
<path d="M0 0 C2 1 2 1 2 1 Z " fill="#F27A2A" transform="translate(393,906)"/>
<path d="M0 0 C2 1 2 1 2 1 Z " fill="#F4792A" transform="translate(510,903)"/>
<path d="M0 0 C2 1 2 1 2 1 Z " fill="#F37B2B" transform="translate(379,902)"/>
<path d="M0 0 C2 1 2 1 2 1 Z " fill="#F87E2B" transform="translate(398,832)"/>
<path d="" fill="#FD7F2C" transform="translate(0,0)"/>
<path d="M0 0 C2 1 2 1 2 1 Z " fill="#F57C2A" transform="translate(344,632)"/>
<path d="" fill="#EF7B2C" transform="translate(0,0)"/>
<path d="" fill="#F17F2D" transform="translate(0,0)"/>
<path d="" fill="#F97F2D" transform="translate(0,0)"/>
<path d="" fill="#F47B2B" transform="translate(0,0)"/>
<path d="" fill="#F17C2C" transform="translate(0,0)"/>
<path d="" fill="#F27C29" transform="translate(0,0)"/>
<path d="" fill="#F37E2C" transform="translate(0,0)"/>
<path d="" fill="#EE7F2C" transform="translate(0,0)"/>
<path d="" fill="#EE7A2C" transform="translate(0,0)"/>
<path d="" fill="#EE7D2E" transform="translate(0,0)"/>
<path d="" fill="#F9832C" transform="translate(0,0)"/>
<path d="" fill="#F8812E" transform="translate(0,0)"/>
<path d="" fill="#EF7C2D" transform="translate(0,0)"/>
<path d="" fill="#FA842F" transform="translate(0,0)"/>
<path d="" fill="#F9812D" transform="translate(0,0)"/>
<path d="" fill="#F07C2E" transform="translate(0,0)"/>
<path d="" fill="#EE792A" transform="translate(0,0)"/>
<path d="" fill="#EE7A2B" transform="translate(0,0)"/>
<path d="" fill="#F7822D" transform="translate(0,0)"/>
<path d="" fill="#F27E2D" transform="translate(0,0)"/>
<path d="" fill="#FA832E" transform="translate(0,0)"/>
<path d="" fill="#F8812C" transform="translate(0,0)"/>
<path d="" fill="#F57A28" transform="translate(0,0)"/>
<path d="" fill="#FA7E2B" transform="translate(0,0)"/>
<path d="" fill="#F17B2A" transform="translate(0,0)"/>
<path d="" fill="#F8802E" transform="translate(0,0)"/>
<path d="" fill="#F37C2D" transform="translate(0,0)"/>
<path d="" fill="#F97F2C" transform="translate(0,0)"/>
<path d="" fill="#FD7E2C" transform="translate(0,0)"/>
<path d="" fill="#F27F2D" transform="translate(0,0)"/>
<path d="" fill="#F9832E" transform="translate(0,0)"/>
<path d="" fill="#FB802D" transform="translate(0,0)"/>
<path d="" fill="#F07D2E" transform="translate(0,0)"/>
<path d="" fill="#F47E2E" transform="translate(0,0)"/>
<path d="" fill="#F47B2C" transform="translate(0,0)"/>
<path d="" fill="#EF7D31" transform="translate(0,0)"/>
<path d="" fill="#F17D2E" transform="translate(0,0)"/>
<path d="" fill="#FA812E" transform="translate(0,0)"/>
<path d="" fill="#F77D2B" transform="translate(0,0)"/>
<path d="" fill="#FD832E" transform="translate(0,0)"/>
<path d="" fill="#FC812D" transform="translate(0,0)"/>
<path d="" fill="#F7802F" transform="translate(0,0)"/>
<path d="" fill="#FA822D" transform="translate(0,0)"/>
<path d="" fill="#FB8230" transform="translate(0,0)"/>
<path d="" fill="#F88130" transform="translate(0,0)"/>
<path d="" fill="#FA822F" transform="translate(0,0)"/>
<path d="" fill="#FD8130" transform="translate(0,0)"/>
<path d="" fill="#F47C2D" transform="translate(0,0)"/>
<path d="" fill="#F77F2E" transform="translate(0,0)"/>
<path d="" fill="#F07625" transform="translate(0,0)"/>
<path d="" fill="#F27B2C" transform="translate(0,0)"/>
<path d="" fill="#FD802C" transform="translate(0,0)"/>
<path d="" fill="#F87D2D" transform="translate(0,0)"/>
<path d="" fill="#F8822F" transform="translate(0,0)"/>
<path d="" fill="#EF7E30" transform="translate(0,0)"/>
<path d="" fill="#FB7E2A" transform="translate(0,0)"/>
<path d="" fill="#F58230" transform="translate(0,0)"/>
<path d="" fill="#F07E2E" transform="translate(0,0)"/>
<path d="" fill="#F9812C" transform="translate(0,0)"/>
<path d="" fill="#F97F2A" transform="translate(0,0)"/>
<path d="" fill="#F9812E" transform="translate(0,0)"/>
<path d="" fill="#FC802D" transform="translate(0,0)"/>
<path d="" fill="#F87F2D" transform="translate(0,0)"/>
<path d="" fill="#FA7E2D" transform="translate(0,0)"/>
<path d="" fill="#FB7F2C" transform="translate(0,0)"/>
<path d="" fill="#F87F2D" transform="translate(0,0)"/>
<path d="" fill="#F97E2A" transform="translate(0,0)"/>
<path d="" fill="#FA7D2E" transform="translate(0,0)"/>
<path d="" fill="#F97F2D" transform="translate(0,0)"/>
<path d="" fill="#F8812C" transform="translate(0,0)"/>
<path d="" fill="#FA7C2A" transform="translate(0,0)"/>
<path d="" fill="#FB802D" transform="translate(0,0)"/>
<path d="" fill="#FB7F2D" transform="translate(0,0)"/>
<path d="" fill="#FA802D" transform="translate(0,0)"/>
<path d="" fill="#F87D2A" transform="translate(0,0)"/>
<path d="" fill="#EF7D2F" transform="translate(0,0)"/>
<path d="" fill="#F67C2C" transform="translate(0,0)"/>
<path d="" fill="#F77F2B" transform="translate(0,0)"/>
<path d="" fill="#F87E2B" transform="translate(0,0)"/>
<path d="" fill="#FB802C" transform="translate(0,0)"/>
<path d="" fill="#F97F2D" transform="translate(0,0)"/>
<path d="" fill="#F9812D" transform="translate(0,0)"/>
<path d="" fill="#FA812D" transform="translate(0,0)"/>
<path d="" fill="#F8802B" transform="translate(0,0)"/>
<path d="" fill="#FA7D27" transform="translate(0,0)"/>
<path d="" fill="#F07C2D" transform="translate(0,0)"/>
<path d="" fill="#F27C2B" transform="translate(0,0)"/>
<path d="" fill="#F57D2B" transform="translate(0,0)"/>
<path d="" fill="#FD7E2B" transform="translate(0,0)"/>
<path d="" fill="#F87C29" transform="translate(0,0)"/>
<path d="" fill="#F17C2B" transform="translate(0,0)"/>
<path d="" fill="#F9802D" transform="translate(0,0)"/>
<path d="" fill="#F9822E" transform="translate(0,0)"/>
<path d="" fill="#F07C2C" transform="translate(0,0)"/>
<path d="" fill="#F97F2C" transform="translate(0,0)"/>
<path d="" fill="#EF7D2D" transform="translate(0,0)"/>
<path d="" fill="#F77C2A" transform="translate(0,0)"/>
<path d="" fill="#F57D29" transform="translate(0,0)"/>
<path d="" fill="#FA7E28" transform="translate(0,0)"/>
<path d="" fill="#FD802C" transform="translate(0,0)"/>
<path d="" fill="#FB7F2D" transform="translate(0,0)"/>
<path d="" fill="#F97B28" transform="translate(0,0)"/>
<path d="" fill="#FA802E" transform="translate(0,0)"/>
<path d="" fill="#F8812C" transform="translate(0,0)"/>
<path d="" fill="#F9832A" transform="translate(0,0)"/>
<path d="" fill="#FA802E" transform="translate(0,0)"/>
<path d="" fill="#F37E2E" transform="translate(0,0)"/>
<path d="" fill="#F97F2F" transform="translate(0,0)"/>
<path d="" fill="#F97F2C" transform="translate(0,0)"/>
<path d="" fill="#FD802A" transform="translate(0,0)"/>
<path d="" fill="#FD7D2C" transform="translate(0,0)"/>
<path d="" fill="#FB7F2D" transform="translate(0,0)"/>
<path d="" fill="#F9802C" transform="translate(0,0)"/>
<path d="" fill="#F9802C" transform="translate(0,0)"/>
<path d="" fill="#F8812E" transform="translate(0,0)"/>
<path d="" fill="#F8812D" transform="translate(0,0)"/>
<path d="" fill="#F27F2D" transform="translate(0,0)"/>
<path d="" fill="#F77D2C" transform="translate(0,0)"/>
<path d="" fill="#F8822F" transform="translate(0,0)"/>
<path d="" fill="#F28030" transform="translate(0,0)"/>
<path d="" fill="#F4802E" transform="translate(0,0)"/>
<path d="" fill="#F47E2C" transform="translate(0,0)"/>
<path d="" fill="#F57E2C" transform="translate(0,0)"/>
<path d="" fill="#F37C2E" transform="translate(0,0)"/>
<path d="" fill="#F17B2A" transform="translate(0,0)"/>
<path d="" fill="#F27C2B" transform="translate(0,0)"/>
<path d="" fill="#E7772E" transform="translate(0,0)"/>
</svg>
